<svg width="28" height="28" viewBox="0 0 28 28" fill="none" xmlns="http://www.w3.org/2000/svg">
<g clip-path="url(#clip0_5_66)">
<path d="M1.16667 1.16663H5.83333L8.96 16.7883C9.06669 17.3254 9.35889 17.8079 9.78547 18.1513C10.212 18.4947 10.7458 18.6771 11.2933 18.6666H22.6333C23.1809 18.6771 23.7146 18.4947 24.1412 18.1513C24.5678 17.8079 24.86 17.3254 24.9667 16.7883L26.8333 6.99996H7M11.6667 24.5C11.6667 25.1443 11.1443 25.6666 10.5 25.6666C9.85567 25.6666 9.33333 25.1443 9.33333 24.5C9.33333 23.8556 9.85567 23.3333 10.5 23.3333C11.1443 23.3333 11.6667 23.8556 11.6667 24.5ZM24.5 24.5C24.5 25.1443 23.9777 25.6666 23.3333 25.6666C22.689 25.6666 22.1667 25.1443 22.1667 24.5C22.1667 23.8556 22.689 23.3333 23.3333 23.3333C23.9777 23.3333 24.5 23.8556 24.5 24.5Z" stroke="#5B4837" stroke-width="3" stroke-linecap="round" stroke-linejoin="round"/>
</g>
<defs>
<clipPath id="clip0_5_66">
<rect width="28" height="28" fill="white"/>
</clipPath>
</defs>
</svg>
