<svg width="29" height="29" viewBox="0 0 29 29" fill="none" xmlns="http://www.w3.org/2000/svg">
<path d="M26.5833 20.445V24.07C26.5847 24.4065 26.5158 24.7396 26.3809 25.0479C26.2461 25.3563 26.0484 25.633 25.8004 25.8605C25.5524 26.088 25.2597 26.2612 24.9409 26.3691C24.6221 26.4769 24.2843 26.5169 23.9492 26.4866C20.2309 26.0826 16.6593 24.812 13.5212 22.777C10.6017 20.9218 8.12645 18.4466 6.27125 15.527C4.22914 12.3747 2.95829 8.78574 2.56166 5.05079C2.53147 4.71664 2.57118 4.37987 2.67827 4.06192C2.78536 3.74396 2.95748 3.45179 3.18367 3.204C3.40987 2.95621 3.68518 2.75823 3.99208 2.62267C4.29898 2.48711 4.63074 2.41694 4.96625 2.41662H8.59125C9.17766 2.41085 9.74616 2.61851 10.1908 3.00089C10.6354 3.38327 10.9258 3.91429 11.0079 4.49495C11.1609 5.65503 11.4447 6.79408 11.8537 7.89037C12.0163 8.32286 12.0515 8.79289 11.9551 9.24477C11.8588 9.69664 11.6349 10.1114 11.31 10.44L9.77542 11.9745C11.4955 14.9997 14.0003 17.5044 17.0254 19.2245L18.56 17.69C18.8885 17.3651 19.3033 17.1412 19.7552 17.0448C20.2071 16.9484 20.6771 16.9836 21.1096 17.1462C22.2059 17.5553 23.3449 17.839 24.505 17.992C25.092 18.0748 25.628 18.3705 26.0112 18.8228C26.3944 19.275 26.598 19.8524 26.5833 20.445Z" stroke="#5B4837" stroke-width="3" stroke-linecap="round" stroke-linejoin="round"/>
</svg>
